<?xml version="1.0" encoding="UTF-8"?>
<svg version="1.1" xmlns="http://www.w3.org/2000/svg" width="1867" height="544">
<path d="M0 0 C20.13 0 40.26 0 61 0 C61 66.99 61 133.98 61 203 C64.83890452 201.08054774 65.79908923 200.33628513 68.1796875 197.0625 C69.06708618 195.85799194 69.06708618 195.85799194 69.97241211 194.62915039 C70.60026611 193.76153076 71.22812012 192.89391113 71.875 192 C73.22646337 190.16433215 74.57935758 188.32971696 75.93359375 186.49609375 C76.61534668 185.57038574 77.29709961 184.64467773 77.99951172 183.69091797 C80.9173099 179.7660984 83.92011748 175.91097622 86.9375 172.0625 C94.07283997 162.93774166 101.08686757 153.7228087 108.09667969 144.50146484 C111.47839568 140.05699819 114.87209019 135.62170886 118.26660156 131.18701172 C120.9861448 127.63400548 123.70283191 124.07888644 126.4140625 120.51953125 C127.26738159 119.40046387 127.26738159 119.40046387 128.13793945 118.25878906 C129.20512183 116.85911379 130.27145661 115.45879158 131.33666992 114.05761719 C132.31126916 112.78021594 133.29651795 111.51084867 134.29373169 110.25102234 C136.0511253 107.99307776 136.0511253 107.99307776 137.63969421 105.44667053 C142.38562472 98.52831746 142.38562472 98.52831746 146.68244934 97.12214661 C149.81310467 96.84498012 152.79830981 96.87261676 155.9375 97.0234375 C157.61851807 97.04466171 157.61851807 97.04466171 159.33349609 97.0663147 C162.89178551 97.12202936 166.44363477 97.24741955 170 97.375 C172.42048157 97.42519059 174.84106247 97.4708127 177.26171875 97.51171875 C183.17665395 97.62161276 189.087867 97.788647 195 98 C193.51067962 101.93466203 191.87709391 104.6118047 189.125 107.8125 C185.36783262 112.29473477 181.79800487 116.86639843 178.3125 121.5625 C172.19920571 129.78130913 165.91318818 137.85879507 159.61035156 145.93261719 C155.71397405 150.93481924 151.86065983 155.97022189 148 161 C146.39594908 163.08342246 144.79177983 165.1667538 143.1875 167.25 C142.78821289 167.77053955 142.38892578 168.2910791 141.97753906 168.82739258 C139.51583589 172.03657062 137.0392834 175.23341747 134.55078125 178.421875 C133.36709913 179.94784812 132.18350453 181.47388914 131 183 C130.15344849 184.07749512 130.15344849 184.07749512 129.28979492 185.17675781 C125.08806947 190.13910351 125.08806947 190.13910351 123 196 C124.59537168 198.99876222 126.7486298 201.479363 128.9375 204.0625 C130.25323039 205.68072572 131.56696589 207.30057507 132.87890625 208.921875 C133.56355957 209.75912109 134.24821289 210.59636719 134.95361328 211.45898438 C138.20408747 215.49512555 141.28706291 219.6515171 144.375 223.8125 C149.60643155 230.82215338 154.87895141 237.79857003 160.1875 244.75 C165.30007379 251.44596833 170.38453194 258.16102538 175.42700195 264.90991211 C179.53943462 270.40579941 183.70608511 275.85939272 187.875 281.3125 C194.85580588 290.45188841 201.71721924 299.6734742 208.50488281 308.95703125 C209.88210016 310.83889845 211.26427356 312.71698966 212.6484375 314.59375 C213.75058594 316.09421875 213.75058594 316.09421875 214.875 317.625 C215.49117187 318.46289062 216.10734375 319.30078125 216.7421875 320.1640625 C218 322 218 322 218 323 C208.44707212 323.41926466 198.89735822 323.73791915 189.33720112 323.93261909 C184.89619402 324.02613498 180.46152585 324.1525969 176.02416992 324.35791016 C147.44092464 325.64623952 147.44092464 325.64623952 140.16741943 321.31213379 C135.86829519 317.30256975 133.343186 312.72640428 131.08491516 307.35427856 C129.25144126 303.37561879 126.60717384 299.99872942 124 296.5 C123.00538001 295.09377987 122.01405071 293.68522125 121.02734375 292.2734375 C117.91303678 287.86091145 114.73831441 283.49334768 111.5625 279.125 C107.07451886 272.94841176 102.71859575 266.69654031 98.4375 260.375 C93.93333272 253.72714897 89.25724054 247.25580281 84.39404297 240.86694336 C79.88620426 234.91920473 75.66067612 228.79660744 71.47265625 222.62109375 C70.86188232 221.72753174 70.86188232 221.72753174 70.23876953 220.81591797 C69.37815972 219.55434608 68.52551992 218.28731513 67.67919922 217.01611328 C65.10226621 213.07511132 65.10226621 213.07511132 61 211 C61 247.96 61 284.92 61 323 C40.87 323 20.74 323 0 323 C0 216.41 0 109.82 0 0 Z " fill="#2E34B0" transform="translate(223,98)"/>
<path d="M0 0 C1.34626465 0.00031723 1.34626465 0.00031723 2.71972656 0.00064087 C60.27012548 0.13506274 60.27012548 0.13506274 80.75 10.375 C80.75 26.545 80.75 42.715 80.75 59.375 C70.67100009 57.13522224 70.67100009 57.13522224 66.2109375 55.60546875 C65.22923584 55.27619385 64.24753418 54.94691895 63.23608398 54.60766602 C62.20942627 54.26276123 61.18276855 53.91785645 60.125 53.5625 C34.77777941 45.241987 5.40683397 37.32511827 -20.2265625 48.6953125 C-27.66136428 52.80579203 -34.21045132 58.82315732 -36.8125 67.1171875 C-38.48852305 75.76666361 -37.65610609 83.70319174 -33.25 91.375 C-31.14000793 94.29974148 -28.8225089 96.85196243 -26.25 99.375 C-25.74984375 99.87386719 -25.2496875 100.37273437 -24.734375 100.88671875 C-11.96727547 112.65437362 5.30798449 120.67646861 20.4296875 128.94140625 C42.15283699 140.81644382 63.033268 153.93041442 80.75 171.375 C81.41386719 172.02597656 82.07773438 172.67695313 82.76171875 173.34765625 C99.66335897 191.23680803 102.60000098 214.60559041 101.93359375 238.16308594 C100.80468645 257.91295891 91.0633913 276.89229659 76.75 290.375 C50.87687943 312.24514099 17.45014189 318.59664523 -15.5625 318.625 C-16.27764771 318.62567474 -16.99279541 318.62634949 -17.72961426 318.62704468 C-45.93641331 318.58534631 -73.7556565 314.48485411 -101.25 308.375 C-101.25 290.885 -101.25 273.395 -101.25 255.375 C-97.53279079 256.11844184 -94.55289236 256.91040484 -91.06640625 258.23046875 C-89.56799194 258.78903564 -89.56799194 258.78903564 -88.03930664 259.35888672 C-86.97446045 259.7560791 -85.90961426 260.15327148 -84.8125 260.5625 C-73.10941195 264.83936472 -61.38188825 268.52546665 -49.25 271.375 C-48.4976709 271.55289062 -47.7453418 271.73078125 -46.97021484 271.9140625 C-26.886556 276.45416748 -1.80191565 278.04072483 16.5 267.25 C17.9177484 266.29326769 19.33453264 265.33510383 20.75 264.375 C21.45640625 264.06820313 22.1628125 263.76140625 22.890625 263.4453125 C25.2510448 262.08658346 25.68815685 260.84653147 26.75 258.375 C27.57356171 257.11854047 28.40720328 255.86863907 29.25 254.625 C34.59504493 246.03193367 35.102831 235.98524009 33.09765625 226.1875 C26.60740287 204.34905085 3.54517635 194.20834329 -14.97094727 184.0078125 C-37.17792884 171.77058042 -58.78216368 158.94700844 -77.25 141.375 C-77.8584375 140.84132812 -78.466875 140.30765625 -79.09375 139.7578125 C-91.78682465 128.16095794 -100.00838805 109.96785624 -101.55371094 93.05004883 C-101.68544956 89.71473392 -101.71786699 86.40021767 -101.6875 83.0625 C-101.67992676 81.88550537 -101.67235352 80.70851074 -101.66455078 79.49584961 C-101.26807598 58.45229829 -93.52797689 41.16278908 -78.9921875 26.0234375 C-65.75326671 13.73354329 -48.82682958 5.97373101 -31.25 2.375 C-30.44127441 2.19839844 -29.63254883 2.02179688 -28.79931641 1.83984375 C-19.2341491 -0.02620526 -9.7071588 -0.02111709 0 0 Z " fill="#3025A8" transform="translate(101.25,110.625)"/>
<path d="M0 0 C20.46 0 40.92 0 62 0 C62 138.93 62 277.86 62 421 C41.54 421 21.08 421 0 421 C0 282.07 0 143.14 0 0 Z " fill="#488FB5" transform="translate(637,0)"/>
<path d="M0 0 C23.86356404 19.77986463 30.8783002 48.52547979 33.76708984 78.17358398 C33.76708984 87.74358398 33.76708984 97.31358398 33.76708984 107.17358398 C-36.52291016 107.66858398 -36.52291016 107.66858398 -108.23291016 108.17358398 C-103.54636782 133.94956686 -98.24751796 156.96060625 -76.04150391 172.35717773 C-54.68825401 186.1669986 -27.4020747 186.75289915 -3.07421875 181.83813477 C5.72488199 179.78012203 14.32806448 176.91935875 22.90307617 174.08740234 C26.16930661 173.04524903 29.47054249 172.11545466 32.76708984 171.17358398 C32.76708984 182.06358398 32.76708984 192.95358398 32.76708984 204.17358398 C23.7426868 207.55773513 23.7426868 207.55773513 19.18505859 208.67358398 C17.67842651 209.04253784 17.67842651 209.04253784 16.14135742 209.41894531 C-22.13515894 218.48296983 -62.66650499 222.55683261 -98.23291016 202.17358398 C-123.95310448 185.97938756 -140.77546911 159.20767975 -148.23291016 130.17358398 C-156.0741035 94.77156809 -150.10393703 56.45627178 -131.04150391 25.51733398 C-117.63730905 5.37507337 -98.93408161 -9.4872362 -74.98461914 -14.74365234 C-48.90632088 -19.45030799 -21.30456428 -16.6232233 0 0 Z M-91.54541016 30.09155273 C-102.67059301 43.81776214 -105.0790446 58.94265954 -107.23291016 76.17358398 C-74.23291016 76.17358398 -41.23291016 76.17358398 -7.23291016 76.17358398 C-8.38523232 55.43178506 -9.79516086 38.55506623 -25.23291016 24.17358398 C-45.0684932 9.04977565 -74.61053714 12.09825015 -91.54541016 30.09155273 Z " fill="#E34C43" transform="translate(1070.23291015625,209.826416015625)"/>
<path d="M0 0 C14.85 0 29.7 0 45 0 C55.72924805 28.23486328 55.72924805 28.23486328 66.45849609 56.46972656 C66.85116165 57.50305618 67.24382721 58.5363858 67.64839172 59.60102844 C68.43207509 61.6633547 69.21575633 63.72568177 69.99943542 65.78800964 C71.94610671 70.91085685 73.89281531 76.03368988 75.83959961 81.15649414 C79.53411507 90.87842643 83.22826484 100.60049723 86.92120361 110.32302856 C88.65509734 114.88784848 90.38918689 119.45259399 92.12329102 124.01733398 C92.94581706 126.18266147 93.76824833 128.34802497 94.59057617 130.51342773 C98.70603217 141.35042652 102.82231743 152.18679506 107 163 C110.79739353 155.74978938 113.95677859 148.36745902 116.9375 140.75 C117.99131691 138.08195133 119.04995706 135.41582898 120.109375 132.75 C120.40249069 132.01183044 120.69560638 131.27366089 120.99760437 130.51312256 C125.48808921 119.22938135 130.09829094 107.99383631 134.6875 96.75 C136.6045822 92.05095067 138.52119595 87.35171047 140.4375 82.65234375 C140.90915588 81.49572739 141.38081177 80.33911102 141.86676025 79.14744568 C146.32527595 68.20984491 150.76033984 57.26282347 155.1875 46.3125 C161.43329577 30.86467441 167.70475992 15.42777146 174 0 C187.2 0 200.4 0 214 0 C205.41379437 22.63072155 196.37490434 45.07059447 187.32562256 67.51919556 C182.53777038 79.39704711 177.75811853 91.27819784 172.98046875 103.16015625 C172.73452123 103.77178014 172.4885737 104.38340402 172.23517323 105.01356196 C160.88003835 133.25264665 149.61944863 161.52917667 138.375 189.8125 C123.35694435 227.58535591 108.26535178 265.32637764 93 303 C78.81 303 64.62 303 50 303 C50.69044037 299.54779813 51.14447726 297.33261892 52.52783203 294.30004883 C52.84022324 293.60813446 53.15261444 292.91622009 53.47447205 292.20333862 C53.8154744 291.46205719 54.15647675 290.72077576 54.5078125 289.95703125 C55.04475487 288.77308273 55.04475487 288.77308273 55.59254456 287.56521606 C56.36426873 285.86459476 57.13821578 284.16498076 57.91415405 282.46627808 C59.1339031 279.79298733 60.34519321 277.11601919 61.55395508 274.43774414 C65.1694415 266.42976889 68.79971999 258.4289413 72.46551514 250.44386292 C73.88411576 247.34505385 75.2889916 244.24015683 76.69061279 241.13363647 C77.3510974 239.67859289 78.01790085 238.22639982 78.69122314 236.7772522 C79.62645125 234.76325467 80.53996289 232.74067086 81.44921875 230.71484375 C81.96830811 229.58167725 82.48739746 228.44851074 83.0222168 227.28100586 C85.19218398 219.99956043 81.85021863 213.41379401 79.1953125 206.6640625 C78.80484741 205.65397629 78.41438232 204.64389008 78.01208496 203.60319519 C76.72334775 200.2743842 75.4241881 196.9497445 74.125 193.625 C73.21334648 191.2758999 72.30238699 188.92653034 71.39208984 186.5769043 C69.51548138 181.73668102 67.63465446 176.89813116 65.75 172.06103516 C63.23243061 165.59944209 60.72355218 159.13452015 58.21875 152.66796875 C55.9105274 146.70986192 53.6019455 140.75189925 51.28955078 134.79541016 C44.24476423 116.64810106 37.23503691 98.48733183 30.23364258 80.32324219 C25.67134409 68.49039136 21.09530426 56.66317298 16.48828125 44.84765625 C15.60738303 42.58595263 14.7265229 40.32423417 13.84570312 38.0625 C12.20145695 33.84079531 10.55232454 29.62104517 8.90039062 25.40234375 C8.15866198 23.49877279 7.41711515 21.59513098 6.67578125 19.69140625 C6.18045647 18.43276512 6.18045647 18.43276512 5.67512512 17.1486969 C3.4688634 11.46604922 1.76440088 5.88133627 0 0 Z " fill="#F94316" transform="translate(1653,199)"/>
<path d="M0 0 C20.13 0 40.26 0 61 0 C61 106.59 61 213.18 61 323 C40.87 323 20.74 323 0 323 C0 216.41 0 109.82 0 0 Z " fill="#238BC0" transform="translate(546,98)"/>
<path d="M0 0 C13.86 0 27.72 0 42 0 C48.65483785 17.50767133 55.27271367 35.02678607 61.80569458 52.58026123 C63.1768343 56.26426954 64.54906472 59.94787064 65.92163086 63.63134766 C67.64578963 68.25856533 69.36974467 72.88585877 71.09337521 77.51327324 C76.08051208 90.90204478 81.07104461 104.28954988 86.06412125 117.67610741 C87.70877276 122.08551615 89.35280073 126.49515663 90.99631023 130.90499115 C92.02641297 133.66851821 93.05708634 136.4318322 94.08790779 139.19509125 C94.78694817 141.0694506 95.48533868 142.94405229 96.18370056 144.81866455 C99.0743114 152.56483129 102.01757315 160.28873635 105 168 C107.18060412 165.81939588 107.80437618 164.32444857 108.91333008 161.47338867 C109.28666473 160.52140091 109.65999939 159.56941315 110.04464722 158.58857727 C110.44885895 157.54227646 110.85307068 156.49597565 111.26953125 155.41796875 C111.91210373 153.7738929 111.91210373 153.7738929 112.56765747 152.09660339 C113.74171071 149.09063879 114.91123147 146.08295548 116.07908249 143.07457733 C117.31042143 139.90635218 118.54791978 136.7405373 119.78540039 133.57470703 C120.03491549 132.93632023 120.2844306 132.29793343 120.54150677 131.64020157 C121.04990431 130.33946821 121.5583193 129.03874167 122.06675148 127.73802185 C122.84160527 125.75502636 123.61578448 123.77176862 124.38981628 121.78845215 C129.52574548 108.6321368 134.72677671 95.5018542 139.9375 82.375 C141.66825779 78.01183337 143.39855962 73.64848595 145.12890625 69.28515625 C145.54262985 68.24208313 145.95635345 67.19901001 146.38261414 66.12432861 C150.0730066 56.81915163 153.75579964 47.51098612 157.43215942 38.20025635 C158.04288115 36.65359542 158.65377126 35.10700098 159.26486206 33.56048584 C160.10155881 31.44286658 160.93764361 29.325007 161.7734375 27.20703125 C162.16605522 26.21289215 162.16605522 26.21289215 162.56660461 25.19866943 C164.03657559 21.46945128 165.49043787 17.73446592 166.93066406 13.99365234 C167.25128815 13.16258469 167.57191223 12.33151703 167.9022522 11.4752655 C168.5240384 9.86167363 169.14357055 8.24721094 169.7605896 6.63179016 C171.88899513 1.11100487 171.88899513 1.11100487 173 0 C175.8843382 -0.08865208 178.74462158 -0.11521296 181.62890625 -0.09765625 C182.92525246 -0.09553383 182.92525246 -0.09553383 184.24778748 -0.09336853 C187.01939292 -0.08775239 189.7909188 -0.07519719 192.5625 -0.0625 C194.4368478 -0.05748708 196.31119685 -0.05292381 198.18554688 -0.04882812 C202.79039544 -0.03777772 207.39518421 -0.0205023 212 0 C205.09122384 18.71190706 197.74249845 37.2398668 190.3125 55.75 C183.78420181 72.01499892 177.28209227 88.28737578 170.9375 104.625 C163.95344669 122.6042826 156.86266141 140.54021399 149.74633789 158.4675293 C148.8634198 160.69188492 147.98052571 162.91625007 147.09765625 165.140625 C146.66606705 166.22793411 146.23447784 167.31524323 145.78981018 168.4355011 C142.99180822 175.48853764 140.20749757 182.54682886 137.43359375 189.609375 C137.08294357 190.50135086 136.7322934 191.39332672 136.37101746 192.31233215 C134.75388671 196.4259951 133.13910652 200.54054449 131.52905273 204.65698242 C130.96481183 206.09298762 130.400448 207.52894452 129.8359375 208.96484375 C129.35688965 210.1880835 128.8778418 211.41132324 128.38427734 212.67163086 C127.06489471 215.84396656 125.53652102 218.92695795 124 222 C110.14 222 96.28 222 82 222 C79.73125 215.85375 77.4625 209.7075 75.125 203.375 C59.77707053 161.82873387 44.33979643 120.31539029 28.875 78.8125 C28.11401194 76.76985742 27.35302559 74.7272142 26.59204102 72.68457031 C23.25117253 63.71804583 19.90820581 54.75231656 16.559021 45.78889465 C15.07606168 41.81911291 13.59469455 37.84873811 12.11358643 33.87826538 C11.42633302 32.03717572 10.73833493 30.19636382 10.04949951 28.35586548 C9.10530896 25.83300412 8.16371988 23.30918535 7.22265625 20.78515625 C6.95374069 20.06869934 6.68482513 19.35224243 6.40776062 18.61407471 C4.11439262 12.44971654 2.08435461 6.25306384 0 0 Z " fill="#BB5961" transform="translate(717,199)"/>
<path d="M0 0 C1.19153183 -0.00492462 1.19153183 -0.00492462 2.40713501 -0.00994873 C20.46708949 -0.03399026 37.61370548 2.39332344 55.25 6.3125 C55.25 17.8625 55.25 29.4125 55.25 41.3125 C46.835 39.3325 46.835 39.3325 38.25 37.3125 C34.87658754 36.56732123 31.50625241 35.83041974 28.125 35.125 C27.35414062 34.96064453 26.58328125 34.79628906 25.7890625 34.62695312 C17.62562224 32.912353 9.77686235 32.1079771 1.4375 32.0625 C0.50357422 32.041875 -0.43035156 32.02125 -1.39257812 32 C-11.91740481 31.94156932 -21.79064779 34.53854986 -29.5078125 42.015625 C-35.08186849 48.20902054 -36.36463275 53.65813097 -36.16796875 61.96484375 C-35.31947821 68.76069791 -32.29618195 72.95995972 -27.3359375 77.54296875 C-17.57306426 84.97696252 -6.01140499 89.30315396 5.21923828 94.03417969 C55.68387491 115.31924795 55.68387491 115.31924795 67.25 139.3125 C73.83015726 156.88609219 74.51197412 175.10284493 66.68701172 192.43188477 C58.37021467 209.64038202 44.06076313 220.78752572 26.25 227.3125 C-6.87411196 238.3667544 -45.77715726 233.10163709 -77.75 220.3125 C-77.75 207.7725 -77.75 195.2325 -77.75 182.3125 C-72.25548133 184.14400622 -67.32442659 185.8471255 -62.125 188.1875 C-41.40143521 197.14185313 -15.62902383 205.43316283 6.9375 198.75 C16.27052269 194.94223325 23.797966 189.52681427 28.25 180.3125 C31.37739076 171.90490996 30.42990883 164.46369899 27 156.3125 C17.90336696 139.6738548 -6.18027941 133.64758378 -22.60546875 126.8984375 C-42.30557459 118.76548002 -63.05567193 108.43987444 -72.25390625 87.96484375 C-78.69708005 71.68252137 -78.95334735 53.74563143 -72.6015625 37.34765625 C-65.83214415 22.14581214 -53.11985745 11.37154456 -37.7734375 5.375 C-25.21651932 0.96223289 -13.21839185 0.0444795 0 0 Z " fill="#F3412D" transform="translate(1349.75,193.6875)"/>
<path d="M0 0 C0 14.52 0 29.04 0 44 C19.14 44 38.28 44 58 44 C58 54.23 58 64.46 58 75 C38.86 75 19.72 75 0 75 C0.11985804 97.81256333 0.11985804 97.81256333 0.2578125 120.625 C0.31812349 129.93422204 0.37648504 139.24342602 0.421875 148.55273438 C0.4549485 155.33409678 0.49486293 162.11537962 0.54279006 168.89665389 C0.56790342 172.48302175 0.58972824 176.06933788 0.60334396 179.65576935 C0.61872016 183.6719952 0.64937791 187.68797192 0.68115234 191.70410156 C0.68331253 192.87655426 0.68547272 194.04900696 0.68769836 195.25698853 C0.81666854 208.08454685 1.88252568 222.15058184 11 232 C13.82342475 233.82705785 13.82342475 233.82705785 16.9375 235.25 C17.95714844 235.75015625 18.97679687 236.2503125 20.02734375 236.765625 C25.7634739 239.14751347 31.06487408 239.15390303 37.1875 239.125 C37.98736328 239.12886719 38.78722656 239.13273438 39.61132812 239.13671875 C45.52491585 239.12721901 51.05673292 238.59432671 57 238 C57 247.57 57 257.14 57 267 C31.62013208 272.82796967 7.16736432 275.33196187 -16.109375 261.04296875 C-30.42348389 250.92637558 -37.31735754 236.94547148 -40.55418396 220.11912537 C-41.35218982 214.20673999 -41.13007347 208.21461236 -41.11352539 202.26196289 C-41.113243 200.8717855 -41.11340227 199.48160797 -41.1139679 198.09143066 C-41.11425384 194.33368737 -41.10839 190.57597625 -41.10139394 186.8182404 C-41.09512653 182.88513049 -41.09455392 178.95201978 -41.09336853 175.01890564 C-41.09026519 167.57823695 -41.08206526 160.13758302 -41.07201904 152.69692081 C-41.06082691 144.22291933 -41.05533965 135.74891713 -41.05032361 127.27491009 C-41.0398818 109.84993 -41.02154873 92.42497014 -41 75 C-50.24 75 -59.48 75 -69 75 C-69 64.77 -69 54.54 -69 44 C-59.76 44 -50.52 44 -41 44 C-41 30.47 -41 16.94 -41 3 C-36.276875 2.505 -31.55375 2.01 -26.6875 1.5 C-25.22143311 1.34337891 -23.75536621 1.18675781 -22.24487305 1.02539062 C-21.05418213 0.90357422 -19.86349121 0.78175781 -18.63671875 0.65625 C-16.83787231 0.46772461 -16.83787231 0.46772461 -15.00268555 0.27539062 C-10.01274427 -0.06792464 -5.00173763 0 0 0 Z " fill="#F73D21" transform="translate(1576,155)"/>
<path d="M0 0 C20.13 0 40.26 0 61 0 C61 74.25 61 148.5 61 225 C40.87 225 20.74 225 0 225 C0 150.75 0 76.5 0 0 Z " fill="#215AB8" transform="translate(454,196)"/>
<path d="M0 0 C1.00264893 0.00249756 2.00529785 0.00499512 3.03833008 0.00756836 C4.92781372 0.02122437 4.92781372 0.02122437 6.85546875 0.03515625 C12.88828125 0.06609375 12.88828125 0.06609375 19.04296875 0.09765625 C19.04296875 12.96765625 19.04296875 25.83765625 19.04296875 39.09765625 C15.74296875 38.43765625 12.44296875 37.77765625 9.04296875 37.09765625 C-8.59427737 35.75772412 -24.18868729 39.05879961 -38.08984375 50.64453125 C-44.46950753 56.19331812 -49.95502236 62.28317916 -54.95703125 69.09765625 C-55.57089471 69.88181066 -56.18475817 70.66596506 -56.81722355 71.47388172 C-62.35436703 79.14662272 -62.95742531 85.59059977 -62.84350586 94.84057617 C-62.85141133 96.29047544 -62.8623839 97.74036069 -62.87615967 99.19021606 C-62.90467944 103.09273716 -62.89075325 106.99404714 -62.86871791 110.89656615 C-62.85300013 114.98723153 -62.87699244 119.07766823 -62.8966217 123.16828918 C-62.92776376 130.89936772 -62.92362561 138.63000113 -62.90654713 146.36110717 C-62.88882748 155.16902377 -62.91084137 163.97670429 -62.93605411 172.78458631 C-62.98699572 190.88911032 -62.98324718 208.99306821 -62.95703125 227.09765625 C-76.48703125 227.09765625 -90.01703125 227.09765625 -103.95703125 227.09765625 C-103.95703125 153.83765625 -103.95703125 80.57765625 -103.95703125 5.09765625 C-90.42703125 5.09765625 -76.89703125 5.09765625 -62.95703125 5.09765625 C-62.62703125 17.30765625 -62.29703125 29.51765625 -61.95703125 42.09765625 C-58.49203125 36.65265625 -58.49203125 36.65265625 -54.95703125 31.09765625 C-52.17029628 27.54200611 -49.12344114 24.31782522 -45.95703125 21.09765625 C-45.26996094 20.39769531 -44.58289062 19.69773438 -43.875 18.9765625 C-32.30904185 7.96851699 -16.15150443 -0.08282823 0 0 Z " fill="#EC403C" transform="translate(1237.95703125,193.90234375)"/>
<path d="M0 0 C13.53 0 27.06 0 41 0 C41 73.26 41 146.52 41 222 C27.47 222 13.94 222 0 222 C0 148.74 0 75.48 0 0 Z " fill="#F63F25" transform="translate(1446,199)"/>
<path d="M0 0 C6 0 6 0 7.67871094 1.58203125 C8.10958008 2.31808594 8.54044922 3.05414063 8.984375 3.8125 C9.47873047 4.63492187 9.97308594 5.45734375 10.48242188 6.3046875 C11.23362305 7.63886719 11.23362305 7.63886719 12 9 C12.51626953 9.88945312 13.03253906 10.77890625 13.56445312 11.6953125 C15.69701382 15.40549245 17.77548296 19.14471198 19.8515625 22.88671875 C20.35945313 23.79035156 20.86734375 24.69398438 21.390625 25.625 C21.84469727 26.44226563 22.29876953 27.25953125 22.76660156 28.1015625 C23.86555199 30.14377087 23.86555199 30.14377087 26 31 C26.26353271 30.29713867 26.52706543 29.59427734 26.79858398 28.87011719 C28.08349308 25.80053959 29.59382558 22.9796596 31.22265625 20.078125 C32.15368164 18.41716797 32.15368164 18.41716797 33.10351562 16.72265625 C33.74998047 15.57667969 34.39644531 14.43070312 35.0625 13.25 C35.719643 12.07695843 36.37654642 10.90378261 37.03320312 9.73046875 C41.86215996 1.13784004 41.86215996 1.13784004 43 0 C45.31 0 47.62 0 50 0 C50 15.51 50 31.02 50 47 C47.69 47 45.38 47 43 47 C42.67 36.77 42.34 26.54 42 16 C38.18530561 22.6855666 38.18530561 22.6855666 34.37182617 29.37182617 C33.89205322 30.21205322 33.41228027 31.05228027 32.91796875 31.91796875 C32.43094482 32.77156982 31.9439209 33.6251709 31.44213867 34.50463867 C29.98846016 37.01996761 28.50154666 39.51300249 27 42 C24.72192383 41.83422852 24.72192383 41.83422852 22 41 C20.1472168 38.68334961 20.1472168 38.68334961 18.44921875 35.65234375 C17.89322998 34.68031006 17.33724121 33.70827637 16.7644043 32.70678711 C16.07902588 31.46292236 15.39364746 30.21905762 14.6875 28.9375 C12.480625 24.998125 10.27375 21.05875 8 17 C7.67 26.9 7.34 36.8 7 47 C4.69 47 2.38 47 0 47 C0 31.49 0 15.98 0 0 Z " fill="#000000" transform="translate(1540,462)"/>
<path d="M0 0 C6 0 6 0 7.67871094 1.58203125 C8.10958008 2.31808594 8.54044922 3.05414063 8.984375 3.8125 C9.47873047 4.63492187 9.97308594 5.45734375 10.48242188 6.3046875 C11.23362305 7.63886719 11.23362305 7.63886719 12 9 C12.51626953 9.88945312 13.03253906 10.77890625 13.56445312 11.6953125 C15.69701382 15.40549245 17.77548296 19.14471198 19.8515625 22.88671875 C20.35945313 23.79035156 20.86734375 24.69398438 21.390625 25.625 C21.84469727 26.44226563 22.29876953 27.25953125 22.76660156 28.1015625 C23.86555199 30.14377087 23.86555199 30.14377087 26 31 C26.26353271 30.29713867 26.52706543 29.59427734 26.79858398 28.87011719 C28.08349308 25.80053959 29.59382558 22.9796596 31.22265625 20.078125 C32.15368164 18.41716797 32.15368164 18.41716797 33.10351562 16.72265625 C33.74998047 15.57667969 34.39644531 14.43070312 35.0625 13.25 C35.719643 12.07695843 36.37654642 10.90378261 37.03320312 9.73046875 C41.86215996 1.13784004 41.86215996 1.13784004 43 0 C45.31 0 47.62 0 50 0 C50 15.51 50 31.02 50 47 C47.69 47 45.38 47 43 47 C42.67 36.77 42.34 26.54 42 16 C38.18530561 22.6855666 38.18530561 22.6855666 34.37182617 29.37182617 C33.89205322 30.21205322 33.41228027 31.05228027 32.91796875 31.91796875 C32.43094482 32.77156982 31.9439209 33.6251709 31.44213867 34.50463867 C29.98846016 37.01996761 28.50154666 39.51300249 27 42 C24.72192383 41.83422852 24.72192383 41.83422852 22 41 C20.1472168 38.68334961 20.1472168 38.68334961 18.44921875 35.65234375 C17.89322998 34.68031006 17.33724121 33.70827637 16.7644043 32.70678711 C16.07902588 31.46292236 15.39364746 30.21905762 14.6875 28.9375 C12.480625 24.998125 10.27375 21.05875 8 17 C7.67 26.9 7.34 36.8 7 47 C4.69 47 2.38 47 0 47 C0 31.49 0 15.98 0 0 Z " fill="#000000" transform="translate(1438,462)"/>
<path d="M0 0 C6 0 6 0 7.67871094 1.58203125 C8.10958008 2.31808594 8.54044922 3.05414063 8.984375 3.8125 C9.47873047 4.63492187 9.97308594 5.45734375 10.48242188 6.3046875 C11.23362305 7.63886719 11.23362305 7.63886719 12 9 C12.51626953 9.88945312 13.03253906 10.77890625 13.56445312 11.6953125 C15.69701382 15.40549245 17.77548296 19.14471198 19.8515625 22.88671875 C20.35945313 23.79035156 20.86734375 24.69398438 21.390625 25.625 C21.84469727 26.44226563 22.29876953 27.25953125 22.76660156 28.1015625 C23.86555199 30.14377087 23.86555199 30.14377087 26 31 C26.26353271 30.29713867 26.52706543 29.59427734 26.79858398 28.87011719 C28.08349308 25.80053959 29.59382558 22.9796596 31.22265625 20.078125 C32.15368164 18.41716797 32.15368164 18.41716797 33.10351562 16.72265625 C33.74998047 15.57667969 34.39644531 14.43070312 35.0625 13.25 C35.719643 12.07695843 36.37654642 10.90378261 37.03320312 9.73046875 C41.86215996 1.13784004 41.86215996 1.13784004 43 0 C45.31 0 47.62 0 50 0 C50 15.51 50 31.02 50 47 C47.69 47 45.38 47 43 47 C42.67 36.77 42.34 26.54 42 16 C38.18530561 22.6855666 38.18530561 22.6855666 34.37182617 29.37182617 C33.89205322 30.21205322 33.41228027 31.05228027 32.91796875 31.91796875 C32.43094482 32.77156982 31.9439209 33.6251709 31.44213867 34.50463867 C29.98846016 37.01996761 28.50154666 39.51300249 27 42 C24.72192383 41.83422852 24.72192383 41.83422852 22 41 C20.1472168 38.68334961 20.1472168 38.68334961 18.44921875 35.65234375 C17.89322998 34.68031006 17.33724121 33.70827637 16.7644043 32.70678711 C16.07902588 31.46292236 15.39364746 30.21905762 14.6875 28.9375 C12.480625 24.998125 10.27375 21.05875 8 17 C7.67 26.9 7.34 36.8 7 47 C4.69 47 2.38 47 0 47 C0 31.49 0 15.98 0 0 Z " fill="#000000" transform="translate(1068,462)"/>
<path d="M0 0 C6.991875 -0.12375 6.991875 -0.12375 14.125 -0.25 C15.58437988 -0.28641602 17.04375977 -0.32283203 18.54736328 -0.36035156 C19.70993652 -0.3703418 20.87250977 -0.38033203 22.0703125 -0.390625 C23.84559326 -0.4220459 23.84559326 -0.4220459 25.65673828 -0.45410156 C30.61382716 0.21919954 33.75563919 2.46528833 36.875 6.3125 C38.35117243 9.83891192 38.46618895 12.20389 38 16 C36 19.4375 36 19.4375 34 22 C34.433125 22.38929688 34.86625 22.77859375 35.3125 23.1796875 C38.78207724 26.66532759 40.4500044 29.11519572 40.5625 34.125 C40.28830032 38.14050196 39.7808429 40.94107281 37 44 C32.38763054 46.79615891 28.99116135 47.35939456 23.6328125 47.29296875 C22.38902832 47.28547607 21.14524414 47.2779834 19.86376953 47.27026367 C17.51807861 47.22929565 17.51807861 47.22929565 15.125 47.1875 C10.13375 47.125625 5.1425 47.06375 0 47 C0 31.49 0 15.98 0 0 Z M7 6 C7 10.62 7 15.24 7 20 C9.89640118 20.08120751 12.79050912 20.14059421 15.6875 20.1875 C16.50412109 20.21263672 17.32074219 20.23777344 18.16210938 20.26367188 C22.92773108 20.32155392 26.16232704 20.17156798 30 17 C31.16977494 14.65127469 31.16977494 14.65127469 31 12 C29.86250805 9.21491684 29.86250805 9.21491684 28 7 C25.23434618 6.07811539 23.61716298 5.88214778 20.76953125 5.90234375 C19.56586914 5.90717773 19.56586914 5.90717773 18.33789062 5.91210938 C17.08782227 5.92467773 17.08782227 5.92467773 15.8125 5.9375 C14.5450293 5.94426758 14.5450293 5.94426758 13.25195312 5.95117188 C11.16793845 5.96294597 9.08396023 5.9808811 7 6 Z M7 26 C7 30.95 7 35.9 7 41 C10.39668836 41.1081174 13.78992439 41.18737188 17.1875 41.25 C18.14720703 41.28351563 19.10691406 41.31703125 20.09570312 41.3515625 C24.54121916 41.41309213 27.23430825 41.44570117 31.140625 39.171875 C33.24302129 37.08191108 33.24302129 37.08191108 33.5625 34 C32.87950957 30.35738439 31.93929829 29.20447372 29 27 C26.17361676 26.09415524 23.62904312 25.88122112 20.671875 25.90234375 C19.47304688 25.90717773 19.47304688 25.90717773 18.25 25.91210938 C17.0125 25.92467773 17.0125 25.92467773 15.75 25.9375 C14.90953125 25.94201172 14.0690625 25.94652344 13.203125 25.95117188 C11.13538599 25.96292039 9.06768376 25.98085478 7 26 Z " fill="#000000" transform="translate(904,462)"/>
<path d="M0 0 C5.64091195 4.2928999 8.89795328 9.62302122 10.125 16.6171875 C10.93855774 24.64922121 9.47752965 31.94507248 4.5 38.4296875 C-1.01404655 44.21271193 -6.9446386 45.85506347 -14.8125 46.1796875 C-22.410315 45.92560739 -28.28935573 44.18789159 -33.75 38.75 C-38.57601282 32.78708993 -40.34139889 26.5652785 -40.12109375 18.9453125 C-39.34073836 11.56290281 -36.57031397 5.45945885 -30.875 0.6171875 C-21.85601433 -5.65527579 -9.33985554 -5.43800799 0 0 Z M-27.625 7.8046875 C-31.43831962 12.57133702 -33.24261131 17.02175234 -32.8125 23.1796875 C-31.86781784 29.00857744 -29.68796041 32.97688998 -25.25 36.9921875 C-19.43754972 39.79077467 -14.25874305 40.32058709 -8.0625 38.4921875 C-2.24931398 35.07266631 0.85229913 31.52522603 2.75390625 25.08984375 C3.5707255 19.6472481 2.0324991 14.70443543 -0.125 9.7421875 C-3.70138111 5.39943901 -7.29740393 3.45917676 -12.8125 2.6796875 C-18.90485154 2.30463283 -22.85955591 4.01399334 -27.625 7.8046875 Z " fill="#000000" transform="translate(1417.875,464.3828125)"/>
<path d="M0 0 C5.64091195 4.2928999 8.89795328 9.62302122 10.125 16.6171875 C10.93855774 24.64922121 9.47752965 31.94507248 4.5 38.4296875 C-1.01404655 44.21271193 -6.9446386 45.85506347 -14.8125 46.1796875 C-22.410315 45.92560739 -28.28935573 44.18789159 -33.75 38.75 C-38.57601282 32.78708993 -40.34139889 26.5652785 -40.12109375 18.9453125 C-39.34073836 11.56290281 -36.57031397 5.45945885 -30.875 0.6171875 C-21.85601433 -5.65527579 -9.33985554 -5.43800799 0 0 Z M-27.625 7.8046875 C-31.43831962 12.57133702 -33.24261131 17.02175234 -32.8125 23.1796875 C-31.86781784 29.00857744 -29.68796041 32.97688998 -25.25 36.9921875 C-19.43754972 39.79077467 -14.25874305 40.32058709 -8.0625 38.4921875 C-2.24931398 35.07266631 0.85229913 31.52522603 2.75390625 25.08984375 C3.5707255 19.6472481 2.0324991 14.70443543 -0.125 9.7421875 C-3.70138111 5.39943901 -7.29740393 3.45917676 -12.8125 2.6796875 C-18.90485154 2.30463283 -22.85955591 4.01399334 -27.625 7.8046875 Z " fill="#000000" transform="translate(883.875,464.3828125)"/>
<path d="M0 0 C6.249375 -0.0928125 6.249375 -0.0928125 12.625 -0.1875 C13.92775879 -0.21481201 15.23051758 -0.24212402 16.57275391 -0.27026367 C23.34617647 -0.31902728 28.41320535 -0.27156567 33.64453125 4.5 C37.92335633 9.99521348 38.62844431 14.21512907 38 21 C36.64559551 24.91272408 35.04195543 27.12058884 31.8828125 29.671875 C30.93148438 30.44015625 29.98015625 31.2084375 29 32 C29.721875 32.99902344 30.44375 33.99804688 31.1875 35.02734375 C32.12512346 36.33064036 33.06261676 37.63403061 34 38.9375 C34.47695312 39.59685547 34.95390625 40.25621094 35.4453125 40.93554688 C39 45.88671875 39 45.88671875 39 47 C35.72387077 47.9061634 33.24642948 48.09542099 30 47 C28.42284979 44.86208527 27.11642235 42.85396523 25.8125 40.5625 C23.50597868 36.57504437 21.94256163 34.27816575 17.3203125 32.9140625 C13.01261762 32.59349715 13.01261762 32.59349715 7 33 C7 37.62 7 42.24 7 47 C4.69 47 2.38 47 0 47 C0 31.49 0 15.98 0 0 Z M7 6 C7 12.93 7 19.86 7 27 C17.93134324 27.51685767 17.93134324 27.51685767 28 24 C30.36416564 20.77613776 31 18.92089385 31 14.9375 C29.7379396 11.23019756 27.98716784 9.48930653 25 7 C21.37918537 5.79306179 18.0749281 5.89217921 14.3125 5.9375 C11.899375 5.958125 9.48625 5.97875 7 6 Z " fill="#000000" transform="translate(1333,462)"/>
<path d="M0 0 C2.97 0 5.94 0 9 0 C13.34248016 9.66258161 17.67612709 19.32907769 22 29 C22.42990234 29.96083496 22.85980469 30.92166992 23.30273438 31.91162109 C24.31040379 34.16832577 25.31297372 36.42717973 26.3125 38.6875 C26.84488281 39.88761719 27.37726563 41.08773437 27.92578125 42.32421875 C29 45 29 45 29 47 C26.36 47 23.72 47 21 47 C20.32880451 45.5437455 19.66318193 44.08492133 19 42.625 C18.62875 41.81289063 18.2575 41.00078125 17.875 40.1640625 C17 38 17 38 17 36 C8.75 36 0.5 36 -8 36 C-8.99 38.97 -9.98 41.94 -11 45 C-11.33 45.66 -11.66 46.32 -12 47 C-14.64 47 -17.28 47 -20 47 C-18.11617456 40.98919836 -15.90590943 35.2755818 -13.2421875 29.5703125 C-12.8936673 28.81330048 -12.54514709 28.05628845 -12.18606567 27.27633667 C-11.08679452 24.89048831 -9.98125054 22.50761911 -8.875 20.125 C-7.76273105 17.72045838 -6.65181252 15.31530534 -5.54251099 12.90939331 C-4.85557902 11.42046523 -4.16675169 9.93240976 -3.47579956 8.44534302 C-2.18429536 5.65314938 -0.97378425 2.92135274 0 0 Z M4 8 C2.49709189 11.47791766 0.99816184 14.95753548 -0.5 18.4375 C-0.92925781 19.43072266 -1.35851563 20.42394531 -1.80078125 21.44726562 C-2.40986328 22.86362305 -2.40986328 22.86362305 -3.03125 24.30859375 C-3.59682617 25.62041626 -3.59682617 25.62041626 -4.17382812 26.95874023 C-5.06252872 28.78747369 -5.06252872 28.78747369 -5 30 C1.27 30 7.54 30 14 30 C12.71459 26.7057632 11.42201622 23.41466398 10.125 20.125 C9.57779297 18.71927734 9.57779297 18.71927734 9.01953125 17.28515625 C8.66503906 16.38925781 8.31054688 15.49335938 7.9453125 14.5703125 C7.62062988 13.74289551 7.29594727 12.91547852 6.96142578 12.06298828 C6.06910272 9.84094923 6.06910272 9.84094923 4 8 Z " fill="#000000" transform="translate(1032,462)"/>
<path d="M0 0 C6.249375 -0.0928125 6.249375 -0.0928125 12.625 -0.1875 C13.92775879 -0.21481201 15.23051758 -0.24212402 16.57275391 -0.27026367 C23.34617647 -0.31902728 28.41320535 -0.27156567 33.64453125 4.5 C37.91848832 9.98896159 38.63854603 14.21980216 38 21 C36.02880719 26.49859047 33.03696208 29.39320205 27.91796875 32.1015625 C23.81224 33.36570924 19.95459642 33.21256473 15.6875 33.125 C14.85154297 33.11597656 14.01558594 33.10695313 13.15429688 33.09765625 C11.10274031 33.07420989 9.05133223 33.03834266 7 33 C7 37.62 7 42.24 7 47 C4.69 47 2.38 47 0 47 C0 31.49 0 15.98 0 0 Z M7 6 C7 12.93 7 19.86 7 27 C17.93134324 27.51685767 17.93134324 27.51685767 28 24 C30.36416564 20.77613776 31 18.92089385 31 14.9375 C29.7379396 11.23019756 27.98716784 9.48930653 25 7 C21.37918537 5.79306179 18.0749281 5.89217921 14.3125 5.9375 C11.899375 5.958125 9.48625 5.97875 7 6 Z " fill="#000000" transform="translate(1131,462)"/>
<path d="M0 0 C1.010625 0.495 2.02125 0.99 3.0625 1.5 C2.1875 6.25 2.1875 6.25 1.0625 8.5 C0.505625 8.2834375 -0.05125 8.066875 -0.625 7.84375 C-6.98971869 5.52148778 -12.30111336 4.28787112 -18.9375 6.5 C-19.9275 6.995 -19.9275 6.995 -20.9375 7.5 C-21.2675 9.81 -21.5975 12.12 -21.9375 14.5 C-17.61522922 18.45816645 -11.97790303 19.5365499 -6.4921875 21.16210938 C-2.05237923 22.55046526 1.16247632 23.6408539 4.0625 27.5 C5.55392111 31.97426332 5.80520548 35.81914023 3.875 40.1875 C1.08264635 43.7501581 -1.62856581 46.0636886 -5.9375 47.5 C-14.0740358 48.00189782 -21.5401238 48.2712114 -28.9375 44.5 C-29.5975 43.84 -30.2575 43.18 -30.9375 42.5 C-30.5625 39.375 -30.5625 39.375 -29.9375 36.5 C-26.72322527 36.5 -25.60268504 37.0599045 -22.8125 38.5 C-18.09278574 40.65999952 -14.07879812 41.32699175 -8.9375 40.5 C-5.86874398 39.22135166 -4.46765036 38.46674477 -2.875 35.5625 C-2.74491416 33.3720039 -2.74491416 33.3720039 -4.3828125 31.55078125 C-8.47478242 28.26594302 -13.29193368 27.32966216 -18.29492188 25.96484375 C-23.95787692 24.26642641 -26.74487381 22.55499147 -29.9375 17.5 C-31.12789589 12.64969128 -30.42544037 8.53218155 -28.3125 4.0625 C-21.28837798 -3.51615797 -9.26003812 -3.47872631 0 0 Z " fill="#000000" transform="translate(1630.9375,462.5)"/>
<path d="M0 0 C1.010625 0.495 2.02125 0.99 3.0625 1.5 C2.1875 6.25 2.1875 6.25 1.0625 8.5 C0.505625 8.2834375 -0.05125 8.066875 -0.625 7.84375 C-6.98971869 5.52148778 -12.30111336 4.28787112 -18.9375 6.5 C-19.9275 6.995 -19.9275 6.995 -20.9375 7.5 C-21.2675 9.81 -21.5975 12.12 -21.9375 14.5 C-17.61522922 18.45816645 -11.97790303 19.5365499 -6.4921875 21.16210938 C-2.05237923 22.55046526 1.16247632 23.6408539 4.0625 27.5 C5.55392111 31.97426332 5.80520548 35.81914023 3.875 40.1875 C1.08264635 43.7501581 -1.62856581 46.0636886 -5.9375 47.5 C-14.0740358 48.00189782 -21.5401238 48.2712114 -28.9375 44.5 C-29.5975 43.84 -30.2575 43.18 -30.9375 42.5 C-30.5625 39.375 -30.5625 39.375 -29.9375 36.5 C-26.72322527 36.5 -25.60268504 37.0599045 -22.8125 38.5 C-18.09278574 40.65999952 -14.07879812 41.32699175 -8.9375 40.5 C-5.86874398 39.22135166 -4.46765036 38.46674477 -2.875 35.5625 C-2.74491416 33.3720039 -2.74491416 33.3720039 -4.3828125 31.55078125 C-8.47478242 28.26594302 -13.29193368 27.32966216 -18.29492188 25.96484375 C-23.95787692 24.26642641 -26.74487381 22.55499147 -29.9375 17.5 C-31.12789589 12.64969128 -30.42544037 8.53218155 -28.3125 4.0625 C-21.28837798 -3.51615797 -9.26003812 -3.47872631 0 0 Z " fill="#000000" transform="translate(1258.9375,462.5)"/>
<path d="M0 0 C2.31 0 4.62 0 7 0 C7.01458252 0.83136475 7.02916504 1.66272949 7.04418945 2.51928711 C7.10575372 5.64514193 7.17999657 8.77038369 7.26245117 11.89575195 C7.31150935 13.89708611 7.34633137 15.89875306 7.38085938 17.90039062 C7.58300394 28.29980946 7.58300394 28.29980946 11 38 C15.191621 41.14371575 18.84604351 41.5622498 24 41 C27.40041269 39.60892208 28.6955307 38.50025568 30.60864258 35.35693359 C32.20658566 31.50156997 32.42842571 28.57871434 32.51171875 24.4140625 C32.52966995 23.71227875 32.54762115 23.010495 32.56611633 22.28744507 C32.61989047 20.06668947 32.65400693 17.8461446 32.6875 15.625 C32.72070237 14.11064796 32.75519471 12.59632362 32.79101562 11.08203125 C32.87559581 7.38822326 32.9425635 3.69434121 33 0 C35.31 0 37.62 0 40 0 C40.09951569 4.83799361 40.17177037 9.67538025 40.21972656 14.51416016 C40.23973571 16.1571695 40.26695213 17.80010859 40.30175781 19.44287109 C40.35075305 21.81625788 40.37307504 24.18869649 40.390625 26.5625 C40.41127014 27.28679199 40.43191528 28.01108398 40.45318604 28.75732422 C40.45553671 34.20461652 39.0987467 38.48301149 36 43 C30.74354115 47.18371214 26.80762484 48.16539777 20.1875 48.25 C18.38345703 48.28867187 18.38345703 48.28867187 16.54296875 48.328125 C11.14005091 47.82774452 8.01117853 46.03415986 4.25 42.1875 C0.3837754 36.71034848 -0.29360531 31.77383469 -0.1953125 25.1953125 C-0.1924826 24.4713327 -0.18965271 23.74735291 -0.18673706 23.00143433 C-0.17562087 20.7091151 -0.15053312 18.41719937 -0.125 16.125 C-0.1149591 14.56250568 -0.10583519 13.00000518 -0.09765625 11.4375 C-0.07570973 7.62484662 -0.04124013 3.81249152 0 0 Z " fill="#000000" transform="translate(1178,462)"/>
<path d="M0 0 C2.4375 1.6875 2.4375 1.6875 4 3 C2.63016497 6.16115776 2.0109362 6.9927092 -1 9 C-1.928125 8.360625 -2.85625 7.72125 -3.8125 7.0625 C-8.42078282 4.08066994 -11.56363126 3.63757542 -17 4 C-22.37973239 5.66957212 -26.27401676 7.99008486 -29 13 C-31.24295523 19.02218116 -31.45615168 24.04251381 -29.046875 30.0234375 C-26.86822787 34.13685335 -24.32219884 36.39638749 -20.125 38.3125 C-13.59770452 39.748505 -9.493371 39.1561817 -3.796875 35.875 C-2 35 -2 35 1 35 C2.6875 36.5 2.6875 36.5 4 38 C2.6406278 41.30133249 1.48041604 42.71980293 -1.75 44.25 C-8.8270421 47.11044697 -16.59933093 47.28180562 -23.91015625 45.15234375 C-31.26035791 41.88189203 -35.41903063 36.95242342 -38.375 29.5625 C-39.86048419 21.09524012 -39.37884457 13.49062243 -34.78125 6.01953125 C-26.75052636 -4.44271705 -11.25612741 -6.60685739 0 0 Z " fill="#000000" transform="translate(1007,464)"/>
<path d="M0 0 C10.89 0 21.78 0 33 0 C33 1.98 33 3.96 33 6 C24.42 6 15.84 6 7 6 C7 11.28 7 16.56 7 22 C14.59 22 22.18 22 30 22 C30 23.98 30 25.96 30 28 C22.41 28 14.82 28 7 28 C7 34.27 7 40.54 7 47 C4.69 47 2.38 47 0 47 C0 31.49 0 15.98 0 0 Z " fill="#000000" transform="translate(1291,462)"/>
<path d="M0 0 C7.92 0 15.84 0 24 0 C24.06910207 5.14170605 24.12876436 10.28178252 24.16479492 15.42358398 C24.17982429 17.1703845 24.20025354 18.91714765 24.22631836 20.66381836 C24.2629608 23.18352515 24.27978492 25.70273039 24.29296875 28.22265625 C24.30845261 28.99585709 24.32393646 29.76905792 24.33988953 30.56568909 C24.34169036 36.44867835 23.27428248 41.1571469 19.5 45.875 C14.94995044 49.28753717 8.3677549 48.51763026 3 48 C-0.43280837 46.73803425 -2.45050834 44.89916817 -4.375 41.75 C-4.58125 41.1725 -4.7875 40.595 -5 40 C-3.35 38.68 -1.7 37.36 0 36 C0.7734375 36.9590625 0.7734375 36.9590625 1.5625 37.9375 C4.7138785 40.60405104 6.92426299 40.78165695 11 41 C13.32158065 40.65340705 13.32158065 40.65340705 15 40 C15.91983592 36.0293204 16.19088698 32.23837938 16.31640625 28.16796875 C16.35830078 26.87568359 16.40019531 25.58339844 16.44335938 24.25195312 C16.48316352 22.89713808 16.52287591 21.54232033 16.5625 20.1875 C16.60573723 18.81313895 16.64935312 17.43878976 16.69335938 16.06445312 C16.79929734 12.70975096 16.90013948 9.35488857 17 6 C11.39 6 5.78 6 0 6 C0 4.02 0 2.04 0 0 Z " fill="#000000" transform="translate(810,462)"/>
<path d="M0 0 C2.31 0 4.62 0 7 0 C7 15.51 7 31.02 7 47 C4.69 47 2.38 47 0 47 C0 31.49 0 15.98 0 0 Z " fill="#000000" transform="translate(1520,462)"/>
</svg>
